<svg xmlns="http://www.w3.org/2000/svg" xmlns:xlink="http://www.w3.org/1999/xlink" width="750" zoomAndPan="magnify" viewBox="0 0 562.5 374.999991" height="500" preserveAspectRatio="xMidYMid meet" version="1.0"><defs><g/><clipPath id="8fcf8409fe"><path d="M 287.675781 38.703125 L 495.953125 38.703125 L 495.953125 366.578125 L 287.675781 366.578125 Z M 287.675781 38.703125 " clip-rule="nonzero"/></clipPath><clipPath id="a5d378401e"><path d="M 344.503906 38.703125 L 495.953125 38.703125 L 439.125 366.34375 L 287.675781 366.34375 Z M 344.503906 38.703125 " clip-rule="nonzero"/></clipPath><clipPath id="bddef979fb"><path d="M 257.59375 8.664062 L 465.210938 8.664062 L 465.210938 335.996094 L 257.59375 335.996094 Z M 257.59375 8.664062 " clip-rule="nonzero"/></clipPath><clipPath id="3ad7fb612e"><path d="M 314.417969 8.664062 L 465.851562 8.664062 L 409.027344 336.269531 L 257.59375 336.269531 Z M 314.417969 8.664062 " clip-rule="nonzero"/></clipPath></defs><g clip-path="url(#8fcf8409fe)"><g clip-path="url(#a5d378401e)"><path fill="#e9ce2c" d="M 287.675781 38.703125 L 495.953125 38.703125 L 495.953125 366.578125 L 287.675781 366.578125 Z M 287.675781 38.703125 " fill-opacity="1" fill-rule="nonzero"/></g></g><path stroke-linecap="butt" transform="matrix(1.856225, 0, 0, 1.856225, 273.102349, 174.356467)" fill="none" stroke-linejoin="miter" d="M 10.479516 75.446611 C 8.690772 75.446611 7.169286 74.81108 5.910852 73.542124 C 4.662939 72.258436 4.040035 70.724324 4.040035 68.937684 C 4.040035 67.161566 4.662939 65.661125 5.910852 64.438465 C 7.169286 63.203179 8.690772 62.586588 10.479516 62.586588 C 12.255635 62.586588 13.766598 63.203179 15.012406 64.438465 C 16.27084 65.661125 16.900058 67.161566 16.900058 68.937684 C 16.900058 70.724324 16.27084 72.258436 15.012406 73.542124 C 13.766598 74.81108 12.255635 75.446611 10.479516 75.446611 Z M 24.055037 23.634041 C 24.055037 22.045215 24.631644 20.652098 25.784858 19.452587 C 26.948594 18.24045 28.371172 17.634381 30.054697 17.634381 C 31.746639 17.634381 33.171322 18.24045 34.322431 19.452587 C 35.475646 20.652098 36.052253 22.045215 36.052253 23.634041 C 36.052253 25.315461 35.475646 26.738039 34.322431 27.901776 C 33.171322 29.05499 31.746639 29.631597 30.054697 29.631597 C 28.371172 29.631597 26.948594 29.05499 25.784858 27.901776 C 24.631644 26.738039 24.055037 25.315461 24.055037 23.634041 Z M 35.117897 38.52271 L 35.117897 74.000884 L 24.991497 74.000884 L 24.991497 38.52271 Z M 74.567084 74.000884 L 64.457519 74.000884 L 64.457519 53.48293 C 64.457519 50.883989 64.070309 48.895325 63.293783 47.519044 C 62.527779 46.144867 61.082053 45.456727 58.952394 45.456727 C 57.024759 45.456727 55.530631 46.214313 54.472115 47.731589 C 53.413599 49.248866 52.885393 51.889895 52.885393 55.652572 L 52.885393 74.000884 L 42.775829 74.000884 L 42.775829 38.52271 L 52.885393 38.52271 L 52.885393 41.769808 L 53.026388 41.769808 C 54.095426 40.180982 55.448559 39.053021 57.083682 38.381715 C 58.718805 37.699888 60.452835 37.358974 62.287877 37.358974 C 66.380946 37.358974 69.449169 38.598469 71.496756 41.081668 C 73.542238 43.562762 74.567084 47.213905 74.567084 52.037203 Z M 100.350261 22.045215 C 99.586361 21.658004 98.885594 21.357074 98.250064 21.146634 C 97.62716 20.921462 96.955854 20.809929 96.240357 20.809929 C 94.65153 20.85833 93.593014 21.487547 93.064809 22.697581 C 92.534498 23.897092 92.269343 25.292313 92.269343 26.879034 L 92.269343 38.52271 L 100.350261 38.52271 L 100.350261 47.043449 L 92.269343 47.043449 L 92.269343 74.000884 L 82.142944 74.000884 L 82.142944 47.043449 L 78.756955 47.043449 L 78.756955 38.52271 L 82.142944 38.52271 L 82.142944 27.973325 C 82.142944 22.916439 83.312993 18.964365 85.655197 16.117104 C 87.995296 13.271948 91.282377 11.84937 95.516441 11.84937 C 97.351483 11.84937 98.961353 12.23658 100.350261 13.013106 Z M 101.229902 56.288102 C 101.229902 50.700905 102.989185 46.149076 106.505647 42.632615 C 110.022109 39.116153 114.472926 37.358974 119.860205 37.358974 C 125.352703 37.358974 129.832983 39.145614 133.303148 42.721 C 136.773312 46.285863 138.507342 50.806126 138.507342 56.288102 C 138.507342 61.839524 136.760686 66.372414 133.267373 69.888875 C 129.774059 73.405337 125.306406 75.16462 119.860205 75.16462 C 114.414003 75.16462 109.94635 73.394815 106.453037 69.855205 C 102.970246 66.302968 101.229902 61.780601 101.229902 56.288102 Z M 119.788655 46.319533 C 117.530628 46.319533 115.579844 47.295977 113.932094 49.248866 C 112.296971 51.201754 111.480462 53.548166 111.480462 56.288102 C 111.480462 58.945967 112.296971 61.262917 113.932094 63.238954 C 115.579844 65.214991 117.553776 66.201957 119.860205 66.201957 C 122.271854 66.201957 124.271039 65.214991 125.857761 63.238954 C 127.446587 61.262917 128.239948 58.945967 128.239948 56.288102 C 128.239948 53.689161 127.457109 51.378524 125.893535 49.354086 C 124.329962 47.331752 122.295002 46.319533 119.788655 46.319533 Z M 119.788655 46.319533 " stroke="#000000" stroke-width="2.70984" stroke-opacity="1" stroke-miterlimit="4"/><g clip-path="url(#bddef979fb)"><g clip-path="url(#3ad7fb612e)"><path stroke-linecap="butt" transform="matrix(1.515458, 0, 0, 1.515458, 257.594825, 8.662657)" fill="none" stroke-linejoin="miter" d="M 37.495683 0.000927423 L 137.421623 0.000927423 L 99.925231 216.176768 L -0.000709277 216.176768 Z M 37.495683 0.000927423 " stroke="#b0228c" stroke-width="14.833807" stroke-opacity="1" stroke-miterlimit="4"/></g></g><g fill="#000000" fill-opacity="1"><g transform="translate(7.516466, 197.947849)"><g><path d="M 60.765625 -57.671875 C 62.816406 -60.890625 65.5625 -63.414062 69 -65.25 C 72.445312 -67.082031 76.09375 -68 79.9375 -68 C 87 -68 92.25 -65.765625 95.6875 -61.296875 C 99.132812 -56.828125 100.859375 -50.300781 100.859375 -41.71875 L 100.859375 0 L 82.078125 0 L 82.078125 -36.890625 C 82.078125 -42.066406 81.425781 -46.039062 80.125 -48.8125 C 78.832031 -51.59375 76.535156 -52.984375 73.234375 -52.984375 C 69.835938 -52.984375 67.3125 -51.4375 65.65625 -48.34375 C 64 -45.257812 63.171875 -40.273438 63.171875 -33.390625 L 63.171875 0 L 44.390625 0 L 44.390625 -38.21875 C 44.390625 -43.144531 43.628906 -46.835938 42.109375 -49.296875 C 40.585938 -51.753906 38.351562 -52.984375 35.40625 -52.984375 C 32.457031 -52.984375 30.066406 -51.6875 28.234375 -49.09375 C 26.398438 -46.5 25.484375 -42.207031 25.484375 -36.21875 L 25.484375 0 L 6.703125 0 L 6.703125 -65.859375 L 25.484375 -65.859375 L 25.484375 -59.953125 L 25.75 -59.953125 C 27.625 -62.546875 30.015625 -64.535156 32.921875 -65.921875 C 35.828125 -67.304688 38.800781 -68 41.84375 -68 C 50.25 -68 56.554688 -64.554688 60.765625 -57.671875 Z M 60.765625 -57.671875 "/></g></g></g><g fill="#000000" fill-opacity="1"><g transform="translate(115.074326, 197.947849)"><g><path d="M 50.4375 -65.859375 L 68.9375 -65.859375 L 68.9375 0 L 50.4375 0 L 50.4375 -6.03125 L 50.15625 -6.03125 C 48.195312 -3.4375 45.582031 -1.425781 42.3125 0 C 39.050781 1.425781 35.722656 2.140625 32.328125 2.140625 C 23.648438 2.140625 16.425781 -1.273438 10.65625 -8.109375 C 4.894531 -14.953125 2.015625 -23.335938 2.015625 -33.265625 C 2.015625 -39.429688 3.265625 -45.148438 5.765625 -50.421875 C 8.265625 -55.703125 11.816406 -59.953125 16.421875 -63.171875 C 21.035156 -66.390625 26.25 -68 32.0625 -68 C 35.457031 -68 38.785156 -67.28125 42.046875 -65.84375 C 45.304688 -64.414062 48.101562 -62.363281 50.4375 -59.6875 Z M 36.484375 -51.375 C 32.273438 -51.375 28.648438 -49.5625 25.609375 -45.9375 C 22.578125 -42.3125 21.0625 -38 21.0625 -33 C 21.0625 -27.988281 22.578125 -23.648438 25.609375 -19.984375 C 28.648438 -16.316406 32.316406 -14.484375 36.609375 -14.484375 C 40.992188 -14.484375 44.707031 -16.289062 47.75 -19.90625 C 50.789062 -23.53125 52.3125 -27.894531 52.3125 -33 C 52.3125 -38.09375 50.765625 -42.425781 47.671875 -46 C 44.585938 -49.582031 40.859375 -51.375 36.484375 -51.375 Z M 36.484375 -51.375 "/></g></g></g><g fill="#000000" fill-opacity="1"><g transform="translate(190.84762, 197.947849)"><g><path d="M 25.078125 -65.859375 L 25.078125 -29.640625 C 25.078125 -19.003906 28.65625 -13.6875 35.8125 -13.6875 C 42.96875 -13.6875 46.546875 -19.003906 46.546875 -29.640625 L 46.546875 -65.859375 L 65.3125 -65.859375 L 65.3125 -26.5625 C 65.3125 -17.53125 62.894531 -10.488281 58.0625 -5.4375 C 53.238281 -0.382812 45.820312 2.140625 35.8125 2.140625 C 25.882812 2.140625 18.484375 -0.40625 13.609375 -5.5 C 8.734375 -10.59375 6.296875 -17.613281 6.296875 -26.5625 L 6.296875 -65.859375 Z M 25.078125 -65.859375 "/></g></g></g><g fill="#000000" fill-opacity="1"><g transform="translate(262.597556, 197.947849)"><g><path d="M 47.609375 -48.953125 C 45.285156 -50.566406 42.691406 -51.375 39.828125 -51.375 C 35.003906 -51.375 31.40625 -49.738281 29.03125 -46.46875 C 26.664062 -43.207031 25.484375 -37.820312 25.484375 -30.3125 L 25.484375 0 L 6.703125 0 L 6.703125 -65.859375 L 25.484375 -65.859375 L 25.484375 -59.015625 L 25.75 -59.015625 C 27.625 -61.878906 29.945312 -64.09375 32.71875 -65.65625 C 35.5 -67.21875 38.628906 -68 42.109375 -68 C 44.703125 -67.914062 47.296875 -67.378906 49.890625 -66.390625 Z M 47.609375 -48.953125 "/></g></g></g><g fill="#000000" fill-opacity="1"><g transform="translate(311.81669, 197.947849)"><g><path d="M 5.90625 -93.484375 C 5.90625 -96.429688 6.976562 -99.023438 9.125 -101.265625 C 11.269531 -103.503906 13.90625 -104.625 17.03125 -104.625 C 20.164062 -104.625 22.804688 -103.503906 24.953125 -101.265625 C 27.097656 -99.023438 28.171875 -96.429688 28.171875 -93.484375 C 28.171875 -90.359375 27.097656 -87.722656 24.953125 -85.578125 C 22.804688 -83.429688 20.164062 -82.359375 17.03125 -82.359375 C 13.90625 -82.359375 11.269531 -83.429688 9.125 -85.578125 C 6.976562 -87.722656 5.90625 -90.359375 5.90625 -93.484375 Z M 26.421875 -65.859375 L 26.421875 0 L 7.640625 0 L 7.640625 -65.859375 Z M 26.421875 -65.859375 "/></g></g></g><g fill="#000000" fill-opacity="1"><g transform="translate(345.747035, 197.947849)"><g><path d="M 65.71875 0 L 46.9375 0 L 46.9375 -38.09375 C 46.9375 -42.914062 46.222656 -46.601562 44.796875 -49.15625 C 43.367188 -51.707031 40.6875 -52.984375 36.75 -52.984375 C 33.175781 -52.984375 30.40625 -51.570312 28.4375 -48.75 C 26.46875 -45.9375 25.484375 -41.039062 25.484375 -34.0625 L 25.484375 0 L 6.703125 0 L 6.703125 -65.859375 L 25.484375 -65.859375 L 25.484375 -59.8125 L 25.75 -59.8125 C 27.71875 -62.769531 30.222656 -64.875 33.265625 -66.125 C 36.304688 -67.375 39.523438 -68 42.921875 -68 C 50.523438 -68 56.222656 -65.695312 60.015625 -61.09375 C 63.816406 -56.488281 65.71875 -49.71875 65.71875 -40.78125 Z M 65.71875 0 "/></g></g></g></svg>