<svg xmlns="http://www.w3.org/2000/svg" xmlns:xlink="http://www.w3.org/1999/xlink" width="750" zoomAndPan="magnify" viewBox="0 0 562.5 374.999991" height="500" preserveAspectRatio="xMidYMid meet" version="1.0"><defs><g/><clipPath id="a83df93545"><path d="M 269 0.167969 L 562 0.167969 L 562 374.832031 L 269 374.832031 Z M 269 0.167969 " clip-rule="nonzero"/></clipPath></defs><g fill="#ffffff" fill-opacity="1"><g transform="translate(334.427628, 325.259267)"><g><path d="M 195.578125 -295.515625 L 195.578125 -245.359375 L 107.78125 -245.359375 L 97.59375 -200.28125 C 103.863281 -200.539062 109.484375 -200.800781 114.453125 -201.0625 C 130.648438 -201.0625 145.929688 -196.75 160.296875 -188.125 C 174.671875 -179.507812 186.171875 -167.359375 194.796875 -151.671875 C 203.421875 -135.992188 207.734375 -118.226562 207.734375 -98.375 C 207.734375 -67.28125 197.800781 -41.800781 177.9375 -21.9375 C 158.082031 -2.082031 132.21875 7.84375 100.34375 7.84375 C 64.800781 7.84375 35.535156 -5.222656 12.546875 -31.359375 L 29.78125 -80.734375 C 37.363281 -69.765625 47.03125 -60.617188 58.78125 -53.296875 C 70.539062 -45.984375 83.085938 -42.328125 96.421875 -42.328125 C 111.835938 -42.328125 124.507812 -48.070312 134.4375 -59.5625 C 144.363281 -71.0625 149.328125 -84.785156 149.328125 -100.734375 C 149.328125 -117.191406 143.644531 -131.101562 132.28125 -142.46875 C 120.914062 -153.832031 107.394531 -159.515625 91.71875 -159.515625 C 83.351562 -159.515625 74.859375 -157.75 66.234375 -154.21875 C 57.609375 -150.695312 50.289062 -146.0625 44.28125 -140.3125 L 35.28125 -140.3125 L 67.015625 -295.515625 Z M 195.578125 -295.515625 "/></g></g></g><g clip-path="url(#a83df93545)"><path stroke-linecap="butt" transform="matrix(7.32042, 0, 0, 7.32042, 334.427628, -62.722993)" fill="none" stroke-linejoin="miter" d="M 26.717605 12.635933 L 26.717605 19.485352 L 14.718315 19.485352 L 13.332529 25.641612 C 14.186839 25.606927 14.953637 25.572243 15.633456 25.537024 C 17.846871 25.537024 19.93382 26.125596 21.894303 27.301673 C 23.863858 28.478283 25.436941 30.138344 26.613017 32.281856 C 27.789628 34.425901 28.377666 36.85276 28.377666 39.562966 C 28.377666 43.806767 27.018561 47.288039 24.299284 50.006782 C 21.589612 52.716988 18.060315 54.071824 13.711926 54.071824 C 8.858209 54.071824 4.858268 52.285297 1.712102 48.712778 L 4.065323 41.967946 C 5.102127 43.466857 6.422279 44.717105 8.025777 45.719225 C 9.637813 46.721345 11.354437 47.222405 13.175648 47.222405 C 15.275937 47.222405 17.005901 46.437998 18.365006 44.869718 C 19.724645 43.292366 20.404464 41.414593 20.404464 39.235863 C 20.404464 36.987763 19.624326 35.088111 18.064584 33.536907 C 16.513379 31.985702 14.666021 31.210367 12.522509 31.210367 C 11.380584 31.210367 10.221583 31.454227 9.045506 31.941946 C 7.868896 32.421662 6.871045 33.053456 6.051953 33.837329 L 4.823049 33.837329 L 9.150094 12.635933 Z M 26.717605 12.635933 " stroke="#e9ce2c" stroke-width="1.874156" stroke-opacity="1" stroke-miterlimit="4"/></g><g fill="#ffffff" fill-opacity="1"><g transform="translate(81.586009, 253.501464)"><g><path d="M 56.765625 -53.875 C 58.679688 -56.882812 61.25 -59.242188 64.46875 -60.953125 C 67.6875 -62.671875 71.085938 -63.53125 74.671875 -63.53125 C 81.273438 -63.53125 86.179688 -61.441406 89.390625 -57.265625 C 92.609375 -53.085938 94.21875 -46.988281 94.21875 -38.96875 L 94.21875 0 L 76.6875 0 L 76.6875 -34.453125 C 76.6875 -39.296875 76.078125 -43.015625 74.859375 -45.609375 C 73.648438 -48.203125 71.5 -49.5 68.40625 -49.5 C 65.238281 -49.5 62.878906 -48.054688 61.328125 -45.171875 C 59.785156 -42.285156 59.015625 -37.628906 59.015625 -31.203125 L 59.015625 0 L 41.46875 0 L 41.46875 -35.703125 C 41.46875 -40.296875 40.757812 -43.742188 39.34375 -46.046875 C 37.925781 -48.347656 35.835938 -49.5 33.078125 -49.5 C 30.316406 -49.5 28.082031 -48.285156 26.375 -45.859375 C 24.664062 -43.429688 23.8125 -39.421875 23.8125 -33.828125 L 23.8125 0 L 6.265625 0 L 6.265625 -61.515625 L 23.8125 -61.515625 L 23.8125 -56 L 24.0625 -56 C 25.8125 -58.425781 28.039062 -60.285156 30.75 -61.578125 C 33.46875 -62.878906 36.25 -63.53125 39.09375 -63.53125 C 46.945312 -63.53125 52.835938 -60.3125 56.765625 -53.875 Z M 56.765625 -53.875 "/></g></g></g><g fill="#ffffff" fill-opacity="1"><g transform="translate(182.058062, 253.501464)"><g><path d="M 47.109375 -61.515625 L 64.40625 -61.515625 L 64.40625 0 L 47.109375 0 L 47.109375 -5.640625 L 46.859375 -5.640625 C 45.023438 -3.210938 42.582031 -1.332031 39.53125 0 C 36.476562 1.332031 33.367188 2 30.203125 2 C 22.097656 2 15.347656 -1.191406 9.953125 -7.578125 C 4.566406 -13.972656 1.875 -21.804688 1.875 -31.078125 C 1.875 -36.835938 3.039062 -42.179688 5.375 -47.109375 C 7.71875 -52.035156 11.039062 -56.003906 15.34375 -59.015625 C 19.644531 -62.023438 24.515625 -63.53125 29.953125 -63.53125 C 33.117188 -63.53125 36.226562 -62.859375 39.28125 -61.515625 C 42.332031 -60.179688 44.941406 -58.257812 47.109375 -55.75 Z M 34.078125 -47.984375 C 30.148438 -47.984375 26.765625 -46.289062 23.921875 -42.90625 C 21.085938 -39.53125 19.671875 -35.503906 19.671875 -30.828125 C 19.671875 -26.148438 21.085938 -22.097656 23.921875 -18.671875 C 26.765625 -15.242188 30.191406 -13.53125 34.203125 -13.53125 C 38.296875 -13.53125 41.757812 -15.222656 44.59375 -18.609375 C 47.4375 -21.992188 48.859375 -26.066406 48.859375 -30.828125 C 48.859375 -35.585938 47.414062 -39.632812 44.53125 -42.96875 C 41.65625 -46.3125 38.171875 -47.984375 34.078125 -47.984375 Z M 34.078125 -47.984375 "/></g></g></g><g fill="#000000" fill-opacity="1"><g transform="translate(252.863838, 253.501464)"><g><path d="M 46.609375 -55.625 L 46.609375 -61.515625 L 64.15625 -61.515625 L 64.15625 -3.125 C 64.15625 8.476562 61.6875 17.367188 56.75 23.546875 C 51.820312 29.734375 44.347656 32.828125 34.328125 32.828125 C 25.890625 32.828125 18.726562 30.445312 12.84375 25.6875 C 6.957031 20.925781 3.757812 14.785156 3.25 7.265625 L 21.796875 7.265625 C 22.210938 10.523438 23.503906 13.132812 25.671875 15.09375 C 27.847656 17.0625 30.609375 18.046875 33.953125 18.046875 C 38.628906 18.046875 41.90625 16.539062 43.78125 13.53125 C 45.664062 10.519531 46.609375 6.132812 46.609375 0.375 L 46.609375 -6.140625 L 46.359375 -6.140625 C 44.523438 -3.628906 42.082031 -1.644531 39.03125 -0.1875 C 35.976562 1.269531 32.820312 2 29.5625 2 C 21.382812 2 14.722656 -1.066406 9.578125 -7.203125 C 4.441406 -13.335938 1.875 -21.046875 1.875 -30.328125 C 1.875 -36.421875 3.101562 -42.054688 5.5625 -47.234375 C 8.03125 -52.410156 11.457031 -56.421875 15.84375 -59.265625 C 20.226562 -62.109375 25.097656 -63.53125 30.453125 -63.53125 C 33.367188 -63.53125 36.3125 -62.816406 39.28125 -61.390625 C 42.25 -59.972656 44.609375 -58.050781 46.359375 -55.625 Z M 34.078125 -47.984375 C 30.066406 -47.984375 26.660156 -46.269531 23.859375 -42.84375 C 21.066406 -39.425781 19.671875 -35.378906 19.671875 -30.703125 C 19.671875 -26.109375 21.066406 -22.097656 23.859375 -18.671875 C 26.660156 -15.242188 30.109375 -13.53125 34.203125 -13.53125 C 38.210938 -13.53125 41.632812 -15.222656 44.46875 -18.609375 C 47.3125 -21.992188 48.734375 -26.023438 48.734375 -30.703125 C 48.734375 -35.460938 47.3125 -39.53125 44.46875 -42.90625 C 41.632812 -46.289062 38.171875 -47.984375 34.078125 -47.984375 Z M 34.078125 -47.984375 "/></g></g></g><g fill="#000000" fill-opacity="1"><g transform="translate(323.269452, 253.501464)"><g><path d="M 5.515625 -87.328125 C 5.515625 -90.085938 6.515625 -92.507812 8.515625 -94.59375 C 10.523438 -96.6875 12.988281 -97.734375 15.90625 -97.734375 C 18.832031 -97.734375 21.296875 -96.6875 23.296875 -94.59375 C 25.304688 -92.507812 26.3125 -90.085938 26.3125 -87.328125 C 26.3125 -84.410156 25.304688 -81.945312 23.296875 -79.9375 C 21.296875 -77.9375 18.832031 -76.9375 15.90625 -76.9375 C 12.988281 -76.9375 10.523438 -77.9375 8.515625 -79.9375 C 6.515625 -81.945312 5.515625 -84.410156 5.515625 -87.328125 Z M 24.6875 -61.515625 L 24.6875 0 L 7.140625 0 L 7.140625 -61.515625 Z M 24.6875 -61.515625 "/></g></g></g><g fill="#000000" fill-opacity="1"><g transform="translate(354.964494, 253.501464)"><g><path d="M 23.8125 -106.25 L 23.8125 0 L 6.265625 0 L 6.265625 -106.25 Z M 23.8125 -106.25 "/></g></g></g><g fill="#000000" fill-opacity="1"><g transform="translate(384.905661, 253.501464)"><g><path d="M 23.8125 -106.25 L 23.8125 0 L 6.265625 0 L 6.265625 -106.25 Z M 23.8125 -106.25 "/></g></g></g><g fill="#000000" fill-opacity="1"><g transform="translate(414.846828, 253.501464)"><g><path d="M 20.421875 -27.9375 C 20.421875 -22.84375 21.503906 -18.8125 23.671875 -15.84375 C 25.847656 -12.882812 28.816406 -11.40625 32.578125 -11.40625 C 35.503906 -11.40625 37.90625 -12.195312 39.78125 -13.78125 C 41.65625 -15.363281 43.179688 -17.367188 44.359375 -19.796875 L 60.515625 -17.171875 C 58.347656 -10.898438 54.773438 -6.132812 49.796875 -2.875 C 44.828125 0.375 39.085938 2 32.578125 2 C 23.472656 2 16.078125 -0.960938 10.390625 -6.890625 C 4.710938 -12.816406 1.875 -20.585938 1.875 -30.203125 C 1.875 -40.304688 4.546875 -48.382812 9.890625 -54.4375 C 15.242188 -60.5 22.515625 -63.53125 31.703125 -63.53125 C 40.890625 -63.53125 48.050781 -60.5625 53.1875 -54.625 C 58.320312 -48.695312 60.890625 -40.300781 60.890625 -29.4375 L 60.890625 -27.9375 Z M 44.359375 -38.84375 C 43.773438 -42.6875 42.394531 -45.710938 40.21875 -47.921875 C 38.050781 -50.140625 35.503906 -51.25 32.578125 -51.25 C 29.816406 -51.25 27.347656 -50.242188 25.171875 -48.234375 C 23.003906 -46.234375 21.585938 -43.101562 20.921875 -38.84375 Z M 44.359375 -38.84375 "/></g></g></g><g fill="#000000" fill-opacity="1"><g transform="translate(477.610565, 253.501464)"><g><path d="M 37.84375 -46.984375 C 36.582031 -48.148438 35.160156 -49.148438 33.578125 -49.984375 C 31.992188 -50.828125 30.320312 -51.25 28.5625 -51.25 C 27.144531 -51.25 25.828125 -50.742188 24.609375 -49.734375 C 23.398438 -48.734375 22.796875 -47.484375 22.796875 -45.984375 C 22.796875 -44.398438 23.484375 -43.144531 24.859375 -42.21875 C 26.242188 -41.300781 28.398438 -40.257812 31.328125 -39.09375 L 35.453125 -37.46875 C 39.296875 -35.957031 42.363281 -33.800781 44.65625 -31 C 46.957031 -28.207031 48.109375 -24.472656 48.109375 -19.796875 C 48.109375 -13.453125 45.875 -8.234375 41.40625 -4.140625 C 36.9375 -0.046875 31.195312 2 24.1875 2 C 19.925781 2 15.914062 1.101562 12.15625 -0.6875 C 8.394531 -2.488281 5.175781 -5.015625 2.5 -8.265625 L 10.53125 -18.671875 C 12.28125 -16.742188 14.238281 -15.070312 16.40625 -13.65625 C 18.582031 -12.238281 20.96875 -11.53125 23.5625 -11.53125 C 25.476562 -11.53125 27.125 -12.132812 28.5 -13.34375 C 29.882812 -14.550781 30.578125 -16.160156 30.578125 -18.171875 C 30.578125 -20.085938 29.84375 -21.585938 28.375 -22.671875 C 26.914062 -23.765625 24.722656 -24.894531 21.796875 -26.0625 C 16.453125 -28.0625 12.878906 -29.875 11.078125 -31.5 C 9.285156 -33.132812 7.992188 -34.929688 7.203125 -36.890625 C 6.410156 -38.859375 6.015625 -41.097656 6.015625 -43.609375 C 6.015625 -49.367188 7.875 -54.128906 11.59375 -57.890625 C 15.3125 -61.648438 19.96875 -63.53125 25.5625 -63.53125 C 29.15625 -63.445312 32.742188 -62.878906 36.328125 -61.828125 C 39.921875 -60.785156 42.929688 -59.222656 45.359375 -57.140625 Z M 37.84375 -46.984375 "/></g></g></g><path stroke-linecap="butt" transform="matrix(2.340261, 0, 0, 2.340261, -32.172599, 129.467648)" fill="none" stroke-linejoin="miter" d="M 72.85711 29.981773 C 73.68501 28.691519 74.781642 27.681682 76.150347 26.948924 C 77.527397 26.216167 78.982897 25.850623 80.516847 25.850623 C 83.339383 25.850623 85.435837 26.743619 86.802873 28.53128 C 88.179923 30.317273 88.869282 32.922818 88.869282 36.347917 L 88.869282 52.999374 L 81.379799 52.999374 L 81.379799 38.282464 C 81.379799 36.207709 81.117742 34.617007 80.595298 33.51036 C 80.081199 32.403712 79.161496 31.851223 77.83619 31.851223 C 76.485846 31.851223 75.479348 32.468809 74.816694 33.70732 C 74.15571 34.935815 73.823549 36.922106 73.823549 39.66786 L 73.823549 52.999374 L 66.334066 52.999374 L 66.334066 37.744997 C 66.334066 35.777068 66.028611 34.303207 65.419371 33.328422 C 64.818476 32.343623 63.923811 31.851223 62.738713 31.851223 C 61.56363 31.851223 60.608876 32.36866 59.876118 33.406872 C 59.14503 34.443415 58.779485 36.155965 58.779485 38.542852 L 58.779485 52.999374 L 51.288333 52.999374 L 51.288333 26.713574 L 58.779485 26.713574 L 58.779485 29.067078 L 58.882973 29.067078 C 59.632422 28.028866 60.587177 27.236019 61.745568 26.686868 C 62.913974 26.129371 64.10241 25.850623 65.314214 25.850623 C 68.669209 25.850623 71.182951 27.227673 72.85711 29.981773 Z M 111.671563 26.713574 L 119.05589 26.713574 L 119.05589 52.999374 L 111.671563 52.999374 L 111.671563 50.594127 L 111.566407 50.594127 C 110.781905 51.622324 109.737016 52.425186 108.430071 52.999374 C 107.131471 53.575232 105.802826 53.862326 104.442467 53.862326 C 100.983985 53.862326 98.098022 52.498629 95.789585 49.771235 C 93.489494 47.035496 92.339449 43.683839 92.339449 39.719604 C 92.339449 37.262613 92.840194 34.979213 93.841685 32.869405 C 94.844845 30.761267 96.263624 29.067078 98.103029 27.785169 C 99.942434 26.496584 102.020528 25.850623 104.33898 25.850623 C 105.697669 25.850623 107.026314 26.137717 108.324914 26.713574 C 109.63186 27.279416 110.746853 28.09897 111.671563 29.170565 Z M 106.103273 32.490508 C 104.429114 32.490508 102.983629 33.21492 101.763479 34.660405 C 100.551675 36.10756 99.945773 37.828455 99.945773 39.82476 C 99.945773 41.827742 100.551675 43.561991 101.763479 45.025837 C 102.983629 46.489683 104.447475 47.222441 106.155017 47.222441 C 107.905957 47.222441 109.388164 46.499698 110.599968 45.052543 C 111.810103 43.605389 112.416005 41.862795 112.416005 39.82476 C 112.416005 37.793403 111.801757 36.064162 110.573261 34.635368 C 109.344766 33.204905 107.854213 32.490508 106.103273 32.490508 Z M 141.707947 29.223978 L 141.707947 26.713574 L 149.197431 26.713574 L 149.197431 51.667391 C 149.197431 56.624772 148.142527 60.423761 146.034388 63.064359 C 143.932926 65.704957 140.739839 67.025256 136.451789 67.025256 C 132.853098 67.025256 129.795212 66.005404 127.276462 63.96737 C 124.757712 61.936012 123.390677 59.317113 123.172018 56.110673 L 131.105496 56.110673 C 131.280757 57.496069 131.829908 58.607724 132.752949 59.443969 C 133.686004 60.290229 134.866095 60.712524 136.294888 60.712524 C 138.291194 60.712524 139.689943 60.066563 140.491136 58.777977 C 141.302343 57.496069 141.707947 55.623281 141.707947 53.156275 L 141.707947 50.37213 L 141.602791 50.37213 C 140.809944 51.443725 139.760047 52.293323 138.453102 52.920924 C 137.154502 53.548525 135.812504 53.862326 134.427108 53.862326 C 130.923558 53.862326 128.074317 52.552042 125.877713 49.928135 C 123.681109 47.295883 122.584477 44.002647 122.584477 40.046758 C 122.584477 37.441212 123.110259 35.030957 124.165163 32.817662 C 125.220067 30.604367 126.683913 28.891817 128.556701 27.681682 C 130.431159 26.461532 132.509252 25.850623 134.792652 25.850623 C 136.047854 25.850623 137.306394 26.156077 138.569942 26.765318 C 139.841836 27.376227 140.853342 28.195781 141.602791 29.223978 Z M 136.348301 32.490508 C 134.63909 32.490508 133.185259 33.223266 131.981801 34.687112 C 130.788357 36.150958 130.190801 37.880199 130.190801 39.876504 C 130.190801 41.846103 130.788357 43.561991 131.981801 45.025837 C 133.185259 46.489683 134.657451 47.222441 136.400045 47.222441 C 138.117602 47.222441 139.581448 46.499698 140.791583 45.052543 C 142.003387 43.605389 142.609289 41.881155 142.609289 39.876504 C 142.609289 37.846816 142.003387 36.10756 140.791583 34.660405 C 139.581448 33.21492 138.099241 32.490508 136.348301 32.490508 Z M 154.223246 15.682151 C 154.223246 14.505399 154.650549 13.472194 155.505155 12.584205 C 156.368106 11.686202 157.421341 11.2372 158.668197 11.2372 C 159.923399 11.2372 160.976634 11.686202 161.83124 12.584205 C 162.685845 13.472194 163.111479 14.505399 163.111479 15.682151 C 163.111479 16.927338 162.685845 17.982242 161.83124 18.845193 C 160.976634 19.69813 159.923399 20.125432 158.668197 20.125432 C 157.421341 20.125432 156.368106 19.69813 155.505155 18.845193 C 154.650549 17.982242 154.223246 16.927338 154.223246 15.682151 Z M 162.418781 26.713574 L 162.418781 52.999374 L 154.915944 52.999374 L 154.915944 26.713574 Z M 175.58338 7.603457 L 175.58338 52.999374 L 168.093897 52.999374 L 168.093897 7.603457 Z M 188.377428 7.603457 L 188.377428 52.999374 L 180.887944 52.999374 L 180.887944 7.603457 Z M 199.734336 41.066609 C 199.734336 43.236506 200.195022 44.957402 201.119732 46.229295 C 202.051118 47.492843 203.319673 48.123782 204.923728 48.123782 C 206.168915 48.123782 207.193774 47.788283 207.994967 47.117284 C 208.806175 46.437939 209.458813 45.579995 209.95622 44.543452 L 216.856493 45.666791 C 215.933453 48.342441 214.407848 50.377137 212.283018 51.770879 C 210.156519 53.16629 207.702866 53.862326 204.923728 53.862326 C 201.027928 53.862326 197.864886 52.59544 195.432932 50.058329 C 193.010993 47.522888 191.799189 44.202945 191.799189 40.098501 C 191.799189 35.777068 192.940888 32.321924 195.224288 29.733069 C 197.516033 27.144215 200.622324 25.850623 204.544831 25.850623 C 208.474014 25.850623 211.536907 27.119178 213.733511 29.654619 C 215.928445 32.190061 217.026747 35.777068 217.026747 40.412302 L 217.026747 41.066609 Z M 209.95622 36.399661 C 209.702509 34.760554 209.109961 33.471969 208.178574 32.530568 C 207.253864 31.58082 206.168915 31.105112 204.923728 31.105112 C 203.746976 31.105112 202.692072 31.532415 201.760686 32.387021 C 200.835976 33.239957 200.230074 34.578617 199.94298 36.399661 Z M 233.990335 32.922818 C 233.459545 32.425411 232.853643 31.998108 232.174298 31.64091 C 231.493284 31.283711 230.778887 31.105112 230.029438 31.105112 C 229.420198 31.105112 228.854356 31.318764 228.330242 31.746066 C 227.816143 32.173369 227.559094 32.709167 227.559094 33.353459 C 227.559094 34.032804 227.856203 34.570271 228.448752 34.960852 C 229.041301 35.353103 229.961003 35.798767 231.20619 36.294505 L 232.970484 36.987203 C 234.617936 37.633164 235.929889 38.551198 236.904674 39.74631 C 237.889473 40.939754 238.381873 42.538801 238.381873 44.543452 C 238.381873 47.252485 237.428788 49.484141 235.519278 51.235081 C 233.611438 52.98769 231.157785 53.862326 228.159988 53.862326 C 226.338944 53.862326 224.623056 53.48009 223.010656 52.71228 C 221.406601 51.936125 220.034558 50.856184 218.892858 49.470788 L 222.317958 45.025837 C 223.067407 45.84539 223.903652 46.559787 224.828362 47.170697 C 225.759748 47.771591 226.7796 48.072039 227.886248 48.072039 C 228.705801 48.072039 229.406845 47.814989 229.991048 47.300891 C 230.583597 46.778446 230.879037 46.089087 230.879037 45.23615 C 230.879037 44.416597 230.565236 43.775642 229.939304 43.314956 C 229.320049 42.844256 228.386993 42.360202 227.141806 41.862795 C 224.858406 41.009858 223.329464 40.233703 222.553308 39.535997 C 221.787167 38.839961 221.233009 38.072151 220.892502 37.235906 C 220.56201 36.391315 220.396764 35.436561 220.396764 34.373311 C 220.396764 31.907974 221.189611 29.873278 222.775305 28.269223 C 224.360999 26.656823 226.352297 25.850623 228.749199 25.850623 C 230.283149 25.885675 231.8171 26.129371 233.349381 26.58338 C 234.883331 27.027375 236.168578 27.693366 237.20679 28.583024 Z M 233.990335 32.922818 " stroke="#000000" stroke-width="2.008024" stroke-opacity="1" stroke-miterlimit="4"/><g fill="#b0228c" fill-opacity="1"><g transform="translate(3.816111, 253.501464)"><g><path d="M 55.875 -45.484375 L 68.28125 -34.203125 C 64.613281 -27.523438 61.273438 -22.867188 58.265625 -20.234375 C 55.253906 -17.597656 52.242188 -16.28125 49.234375 -16.28125 C 46.484375 -16.28125 43.519531 -17.195312 40.34375 -19.03125 C 37.164062 -20.875 33.070312 -23.507812 28.0625 -26.9375 C 26.5625 -27.9375 25.0625 -28.4375 23.5625 -28.4375 C 22.382812 -28.4375 21.171875 -27.453125 19.921875 -25.484375 C 18.671875 -23.523438 17.546875 -21.296875 16.546875 -18.796875 L 4.140625 -29.828125 C 4.640625 -30.410156 5.390625 -31.492188 6.390625 -33.078125 C 10.648438 -39.585938 13.988281 -43.695312 16.40625 -45.40625 C 18.832031 -47.125 21.132812 -47.984375 23.3125 -47.984375 C 25.144531 -47.984375 27.226562 -47.484375 29.5625 -46.484375 C 31.90625 -45.484375 34.375 -43.9375 36.96875 -41.84375 C 42.0625 -37.75 46.109375 -35.703125 49.109375 -35.703125 C 50.117188 -35.703125 51.207031 -36.515625 52.375 -38.140625 C 53.539062 -39.773438 54.707031 -42.222656 55.875 -45.484375 Z M 55.875 -45.484375 "/></g></g></g><path stroke-linecap="butt" transform="matrix(0.751105, 0.000000000000000139, -0.000000000000000139, 0.75, 85.970507, 140.124114)" fill="none" stroke-linejoin="miter" d="M -0.0023392 2.501182 L 307.56016 2.501182 " stroke="#e9ce2c" stroke-width="5" stroke-opacity="1" stroke-miterlimit="4"/><path stroke-linecap="butt" transform="matrix(0.751529, 0, 0, 0.75, 85.970507, 288.240465)" fill="none" stroke-linejoin="miter" d="M -0.00233788 2.502296 L 214.575759 2.502296 " stroke="#b0228c" stroke-width="5" stroke-opacity="1" stroke-miterlimit="4"/><g fill="#737373" fill-opacity="1"><g transform="translate(38.800545, 121.994023)"><g><path d="M 5.640625 -25.140625 L 5.640625 -13.34375 L 5.6875 -13.34375 C 6.144531 -13.9375 6.703125 -14.363281 7.359375 -14.625 C 8.023438 -14.894531 8.734375 -15.03125 9.484375 -15.03125 C 11.171875 -15.03125 12.429688 -14.519531 13.265625 -13.5 C 14.109375 -12.488281 14.53125 -10.992188 14.53125 -9.015625 L 14.53125 0 L 10.375 0 L 10.375 -8.515625 C 10.375 -9.304688 10.289062 -9.921875 10.125 -10.359375 C 9.957031 -10.804688 9.722656 -11.144531 9.421875 -11.375 C 9.128906 -11.601562 8.6875 -11.71875 8.09375 -11.71875 C 7.25 -11.71875 6.628906 -11.375 6.234375 -10.6875 C 5.835938 -10.007812 5.640625 -8.957031 5.640625 -7.53125 L 5.640625 0 L 1.484375 0 L 1.484375 -25.140625 Z M 5.640625 -25.140625 "/></g></g></g><g fill="#737373" fill-opacity="1"><g transform="translate(54.794707, 121.994023)"><g><path d="M 6.140625 -19.484375 L 6.140625 -14.5625 L 8.6875 -14.5625 L 8.6875 -11.0625 L 6.140625 -11.0625 L 6.140625 0 L 1.984375 0 L 1.984375 -11.0625 L 0.5625 -11.0625 L 0.5625 -14.5625 L 1.984375 -14.5625 L 1.984375 -19.484375 Z M 6.140625 -19.484375 "/></g></g></g><g fill="#737373" fill-opacity="1"><g transform="translate(62.910272, 121.994023)"><g><path d="M 6.140625 -19.484375 L 6.140625 -14.5625 L 8.6875 -14.5625 L 8.6875 -11.0625 L 6.140625 -11.0625 L 6.140625 0 L 1.984375 0 L 1.984375 -11.0625 L 0.5625 -11.0625 L 0.5625 -14.5625 L 1.984375 -14.5625 L 1.984375 -19.484375 Z M 6.140625 -19.484375 "/></g></g></g><g fill="#737373" fill-opacity="1"><g transform="translate(71.025838, 121.994023)"><g><path d="M 5.6875 -1.359375 L 5.640625 -1.359375 L 5.640625 7.765625 L 1.484375 7.765625 L 1.484375 -14.5625 L 5.640625 -14.5625 L 5.640625 -13.234375 C 6.109375 -13.804688 6.707031 -14.25 7.4375 -14.5625 C 8.175781 -14.875 8.921875 -15.03125 9.671875 -15.03125 C 10.890625 -15.03125 12.015625 -14.679688 13.046875 -13.984375 C 14.078125 -13.296875 14.878906 -12.351562 15.453125 -11.15625 C 16.023438 -9.96875 16.3125 -8.703125 16.3125 -7.359375 C 16.3125 -5.117188 15.664062 -3.253906 14.375 -1.765625 C 13.09375 -0.273438 11.492188 0.46875 9.578125 0.46875 C 8.828125 0.46875 8.097656 0.3125 7.390625 0 C 6.691406 -0.3125 6.125 -0.765625 5.6875 -1.359375 Z M 8.625 -11.359375 C 7.695312 -11.359375 6.894531 -10.957031 6.21875 -10.15625 C 5.550781 -9.351562 5.21875 -8.398438 5.21875 -7.296875 C 5.21875 -6.191406 5.550781 -5.234375 6.21875 -4.421875 C 6.894531 -3.609375 7.707031 -3.203125 8.65625 -3.203125 C 9.664062 -3.203125 10.488281 -3.613281 11.125 -4.4375 C 11.769531 -5.269531 12.09375 -6.222656 12.09375 -7.296875 C 12.09375 -8.398438 11.753906 -9.351562 11.078125 -10.15625 C 10.410156 -10.957031 9.59375 -11.359375 8.625 -11.359375 Z M 8.625 -11.359375 "/></g></g></g><g fill="#737373" fill-opacity="1"><g transform="translate(87.760473, 121.994023)"><g><path d="M 8.953125 -11.125 C 8.660156 -11.394531 8.328125 -11.628906 7.953125 -11.828125 C 7.578125 -12.023438 7.179688 -12.125 6.765625 -12.125 C 6.421875 -12.125 6.101562 -12.003906 5.8125 -11.765625 C 5.53125 -11.535156 5.390625 -11.242188 5.390625 -10.890625 C 5.390625 -10.515625 5.550781 -10.21875 5.875 -10 C 6.207031 -9.78125 6.71875 -9.53125 7.40625 -9.25 L 8.390625 -8.875 C 9.296875 -8.507812 10.019531 -7.992188 10.5625 -7.328125 C 11.113281 -6.671875 11.390625 -5.789062 11.390625 -4.6875 C 11.390625 -3.1875 10.859375 -1.953125 9.796875 -0.984375 C 8.742188 -0.015625 7.382812 0.46875 5.71875 0.46875 C 4.71875 0.46875 3.769531 0.257812 2.875 -0.15625 C 1.988281 -0.582031 1.226562 -1.179688 0.59375 -1.953125 L 2.484375 -4.421875 C 2.898438 -3.960938 3.363281 -3.566406 3.875 -3.234375 C 4.394531 -2.898438 4.960938 -2.734375 5.578125 -2.734375 C 6.023438 -2.734375 6.410156 -2.875 6.734375 -3.15625 C 7.066406 -3.445312 7.234375 -3.828125 7.234375 -4.296875 C 7.234375 -4.753906 7.0625 -5.109375 6.71875 -5.359375 C 6.375 -5.617188 5.851562 -5.890625 5.15625 -6.171875 C 3.894531 -6.640625 3.050781 -7.066406 2.625 -7.453125 C 2.195312 -7.835938 1.890625 -8.265625 1.703125 -8.734375 C 1.515625 -9.203125 1.421875 -9.734375 1.421875 -10.328125 C 1.421875 -11.679688 1.859375 -12.800781 2.734375 -13.6875 C 3.617188 -14.582031 4.722656 -15.03125 6.046875 -15.03125 C 6.898438 -15.007812 7.75 -14.875 8.59375 -14.625 C 9.445312 -14.382812 10.160156 -14.015625 10.734375 -13.515625 Z M 8.953125 -11.125 "/></g></g></g><g fill="#737373" fill-opacity="1"><g transform="translate(99.904182, 121.994023)"><g><path d="M 4.296875 -10.078125 C 3.566406 -10.078125 2.941406 -10.335938 2.421875 -10.859375 C 1.910156 -11.390625 1.65625 -12.019531 1.65625 -12.75 C 1.65625 -13.476562 1.910156 -14.09375 2.421875 -14.59375 C 2.941406 -15.101562 3.566406 -15.359375 4.296875 -15.359375 C 5.023438 -15.359375 5.644531 -15.101562 6.15625 -14.59375 C 6.675781 -14.09375 6.9375 -13.476562 6.9375 -12.75 C 6.9375 -12.019531 6.675781 -11.390625 6.15625 -10.859375 C 5.644531 -10.335938 5.023438 -10.078125 4.296875 -10.078125 Z M 4.296875 0.59375 C 3.566406 0.59375 2.941406 0.332031 2.421875 -0.1875 C 1.910156 -0.71875 1.65625 -1.347656 1.65625 -2.078125 C 1.65625 -2.804688 1.910156 -3.421875 2.421875 -3.921875 C 2.941406 -4.429688 3.566406 -4.6875 4.296875 -4.6875 C 5.023438 -4.6875 5.644531 -4.429688 6.15625 -3.921875 C 6.675781 -3.421875 6.9375 -2.804688 6.9375 -2.078125 C 6.9375 -1.347656 6.675781 -0.71875 6.15625 -0.1875 C 5.644531 0.332031 5.023438 0.59375 4.296875 0.59375 Z M 4.296875 0.59375 "/></g></g></g><g fill="#737373" fill-opacity="1"><g transform="translate(108.464009, 121.994023)"><g><path d="M 12.015625 -25.140625 L 14.890625 -24.109375 L 3.96875 4.796875 L 1.09375 3.765625 Z M 12.015625 -25.140625 "/></g></g></g><g fill="#737373" fill-opacity="1"><g transform="translate(124.428568, 121.994023)"><g><path d="M 12.015625 -25.140625 L 14.890625 -24.109375 L 3.96875 4.796875 L 1.09375 3.765625 Z M 12.015625 -25.140625 "/></g></g></g><g fill="#737373" fill-opacity="1"><g transform="translate(140.393126, 121.994023)"><g><path d="M 5.6875 -1.359375 L 5.640625 -1.359375 L 5.640625 7.765625 L 1.484375 7.765625 L 1.484375 -14.5625 L 5.640625 -14.5625 L 5.640625 -13.234375 C 6.109375 -13.804688 6.707031 -14.25 7.4375 -14.5625 C 8.175781 -14.875 8.921875 -15.03125 9.671875 -15.03125 C 10.890625 -15.03125 12.015625 -14.679688 13.046875 -13.984375 C 14.078125 -13.296875 14.878906 -12.351562 15.453125 -11.15625 C 16.023438 -9.96875 16.3125 -8.703125 16.3125 -7.359375 C 16.3125 -5.117188 15.664062 -3.253906 14.375 -1.765625 C 13.09375 -0.273438 11.492188 0.46875 9.578125 0.46875 C 8.828125 0.46875 8.097656 0.3125 7.390625 0 C 6.691406 -0.3125 6.125 -0.765625 5.6875 -1.359375 Z M 8.625 -11.359375 C 7.695312 -11.359375 6.894531 -10.957031 6.21875 -10.15625 C 5.550781 -9.351562 5.21875 -8.398438 5.21875 -7.296875 C 5.21875 -6.191406 5.550781 -5.234375 6.21875 -4.421875 C 6.894531 -3.609375 7.707031 -3.203125 8.65625 -3.203125 C 9.664062 -3.203125 10.488281 -3.613281 11.125 -4.4375 C 11.769531 -5.269531 12.09375 -6.222656 12.09375 -7.296875 C 12.09375 -8.398438 11.753906 -9.351562 11.078125 -10.15625 C 10.410156 -10.957031 9.59375 -11.359375 8.625 -11.359375 Z M 8.625 -11.359375 "/></g></g></g><g fill="#737373" fill-opacity="1"><g transform="translate(157.127761, 121.994023)"><g><path d="M 4.828125 -6.609375 C 4.828125 -5.398438 5.082031 -4.445312 5.59375 -3.75 C 6.113281 -3.050781 6.816406 -2.703125 7.703125 -2.703125 C 8.398438 -2.703125 8.96875 -2.890625 9.40625 -3.265625 C 9.851562 -3.640625 10.21875 -4.113281 10.5 -4.6875 L 14.328125 -4.0625 C 13.804688 -2.582031 12.957031 -1.457031 11.78125 -0.6875 C 10.613281 0.0820312 9.253906 0.46875 7.703125 0.46875 C 5.554688 0.46875 3.804688 -0.226562 2.453125 -1.625 C 1.109375 -3.03125 0.4375 -4.867188 0.4375 -7.140625 C 0.4375 -9.535156 1.066406 -11.445312 2.328125 -12.875 C 3.597656 -14.3125 5.320312 -15.03125 7.5 -15.03125 C 9.675781 -15.03125 11.367188 -14.328125 12.578125 -12.921875 C 13.796875 -11.523438 14.40625 -9.539062 14.40625 -6.96875 L 14.40625 -6.609375 Z M 10.5 -9.1875 C 10.363281 -10.101562 10.035156 -10.820312 9.515625 -11.34375 C 9.003906 -11.863281 8.398438 -12.125 7.703125 -12.125 C 7.054688 -12.125 6.472656 -11.882812 5.953125 -11.40625 C 5.441406 -10.9375 5.109375 -10.195312 4.953125 -9.1875 Z M 10.5 -9.1875 "/></g></g></g><g fill="#737373" fill-opacity="1"><g transform="translate(171.966791, 121.994023)"><g><path d="M 10.53125 -10.828125 C 10.007812 -11.179688 9.4375 -11.359375 8.8125 -11.359375 C 7.738281 -11.359375 6.941406 -10.992188 6.421875 -10.265625 C 5.898438 -9.546875 5.640625 -8.359375 5.640625 -6.703125 L 5.640625 0 L 1.484375 0 L 1.484375 -14.5625 L 5.640625 -14.5625 L 5.640625 -13.046875 L 5.6875 -13.046875 C 6.101562 -13.679688 6.617188 -14.171875 7.234375 -14.515625 C 7.847656 -14.859375 8.539062 -15.03125 9.3125 -15.03125 C 9.882812 -15.007812 10.457031 -14.894531 11.03125 -14.6875 Z M 10.53125 -10.828125 "/></g></g></g><g fill="#737373" fill-opacity="1"><g transform="translate(182.836919, 121.994023)"><g><path d="M 8.953125 -11.125 C 8.660156 -11.394531 8.328125 -11.628906 7.953125 -11.828125 C 7.578125 -12.023438 7.179688 -12.125 6.765625 -12.125 C 6.421875 -12.125 6.101562 -12.003906 5.8125 -11.765625 C 5.53125 -11.535156 5.390625 -11.242188 5.390625 -10.890625 C 5.390625 -10.515625 5.550781 -10.21875 5.875 -10 C 6.207031 -9.78125 6.71875 -9.53125 7.40625 -9.25 L 8.390625 -8.875 C 9.296875 -8.507812 10.019531 -7.992188 10.5625 -7.328125 C 11.113281 -6.671875 11.390625 -5.789062 11.390625 -4.6875 C 11.390625 -3.1875 10.859375 -1.953125 9.796875 -0.984375 C 8.742188 -0.015625 7.382812 0.46875 5.71875 0.46875 C 4.71875 0.46875 3.769531 0.257812 2.875 -0.15625 C 1.988281 -0.582031 1.226562 -1.179688 0.59375 -1.953125 L 2.484375 -4.421875 C 2.898438 -3.960938 3.363281 -3.566406 3.875 -3.234375 C 4.394531 -2.898438 4.960938 -2.734375 5.578125 -2.734375 C 6.023438 -2.734375 6.410156 -2.875 6.734375 -3.15625 C 7.066406 -3.445312 7.234375 -3.828125 7.234375 -4.296875 C 7.234375 -4.753906 7.0625 -5.109375 6.71875 -5.359375 C 6.375 -5.617188 5.851562 -5.890625 5.15625 -6.171875 C 3.894531 -6.640625 3.050781 -7.066406 2.625 -7.453125 C 2.195312 -7.835938 1.890625 -8.265625 1.703125 -8.734375 C 1.515625 -9.203125 1.421875 -9.734375 1.421875 -10.328125 C 1.421875 -11.679688 1.859375 -12.800781 2.734375 -13.6875 C 3.617188 -14.582031 4.722656 -15.03125 6.046875 -15.03125 C 6.898438 -15.007812 7.75 -14.875 8.59375 -14.625 C 9.445312 -14.382812 10.160156 -14.015625 10.734375 -13.515625 Z M 8.953125 -11.125 "/></g></g></g><g fill="#737373" fill-opacity="1"><g transform="translate(194.980628, 121.994023)"><g><path d="M 0.46875 -7.265625 C 0.46875 -9.554688 1.1875 -11.421875 2.625 -12.859375 C 4.070312 -14.304688 5.90625 -15.03125 8.125 -15.03125 C 10.375 -15.03125 12.210938 -14.296875 13.640625 -12.828125 C 15.066406 -11.367188 15.78125 -9.515625 15.78125 -7.265625 C 15.78125 -4.992188 15.0625 -3.132812 13.625 -1.6875 C 12.195312 -0.25 10.363281 0.46875 8.125 0.46875 C 5.894531 0.46875 4.0625 -0.253906 2.625 -1.703125 C 1.1875 -3.160156 0.46875 -5.015625 0.46875 -7.265625 Z M 8.09375 -11.359375 C 7.164062 -11.359375 6.363281 -10.957031 5.6875 -10.15625 C 5.019531 -9.351562 4.6875 -8.390625 4.6875 -7.265625 C 4.6875 -6.179688 5.019531 -5.234375 5.6875 -4.421875 C 6.363281 -3.609375 7.175781 -3.203125 8.125 -3.203125 C 9.113281 -3.203125 9.929688 -3.609375 10.578125 -4.421875 C 11.234375 -5.234375 11.5625 -6.179688 11.5625 -7.265625 C 11.5625 -8.335938 11.238281 -9.285156 10.59375 -10.109375 C 9.957031 -10.941406 9.125 -11.359375 8.09375 -11.359375 Z M 8.09375 -11.359375 "/></g></g></g><g fill="#737373" fill-opacity="1"><g transform="translate(211.211758, 121.994023)"><g><path d="M 4.296875 0.59375 C 3.566406 0.59375 2.941406 0.332031 2.421875 -0.1875 C 1.910156 -0.71875 1.65625 -1.347656 1.65625 -2.078125 C 1.65625 -2.804688 1.910156 -3.421875 2.421875 -3.921875 C 2.941406 -4.429688 3.566406 -4.6875 4.296875 -4.6875 C 5.023438 -4.6875 5.644531 -4.429688 6.15625 -3.921875 C 6.675781 -3.421875 6.9375 -2.804688 6.9375 -2.078125 C 6.9375 -1.347656 6.675781 -0.71875 6.15625 -0.1875 C 5.644531 0.332031 5.023438 0.59375 4.296875 0.59375 Z M 4.296875 0.59375 "/></g></g></g><g fill="#737373" fill-opacity="1"><g transform="translate(219.771586, 121.994023)"><g><path d="M 1.3125 -20.671875 C 1.3125 -21.328125 1.546875 -21.898438 2.015625 -22.390625 C 2.492188 -22.878906 3.078125 -23.125 3.765625 -23.125 C 4.453125 -23.125 5.035156 -22.878906 5.515625 -22.390625 C 5.992188 -21.898438 6.234375 -21.328125 6.234375 -20.671875 C 6.234375 -19.972656 5.992188 -19.382812 5.515625 -18.90625 C 5.035156 -18.4375 4.453125 -18.203125 3.765625 -18.203125 C 3.078125 -18.203125 2.492188 -18.4375 2.015625 -18.90625 C 1.546875 -19.382812 1.3125 -19.972656 1.3125 -20.671875 Z M 5.84375 -14.5625 L 5.84375 0 L 1.6875 0 L 1.6875 -14.5625 Z M 5.84375 -14.5625 "/></g></g></g><g fill="#737373" fill-opacity="1"><g transform="translate(227.265162, 121.994023)"><g><path d="M 8.953125 -11.125 C 8.660156 -11.394531 8.328125 -11.628906 7.953125 -11.828125 C 7.578125 -12.023438 7.179688 -12.125 6.765625 -12.125 C 6.421875 -12.125 6.101562 -12.003906 5.8125 -11.765625 C 5.53125 -11.535156 5.390625 -11.242188 5.390625 -10.890625 C 5.390625 -10.515625 5.550781 -10.21875 5.875 -10 C 6.207031 -9.78125 6.71875 -9.53125 7.40625 -9.25 L 8.390625 -8.875 C 9.296875 -8.507812 10.019531 -7.992188 10.5625 -7.328125 C 11.113281 -6.671875 11.390625 -5.789062 11.390625 -4.6875 C 11.390625 -3.1875 10.859375 -1.953125 9.796875 -0.984375 C 8.742188 -0.015625 7.382812 0.46875 5.71875 0.46875 C 4.71875 0.46875 3.769531 0.257812 2.875 -0.15625 C 1.988281 -0.582031 1.226562 -1.179688 0.59375 -1.953125 L 2.484375 -4.421875 C 2.898438 -3.960938 3.363281 -3.566406 3.875 -3.234375 C 4.394531 -2.898438 4.960938 -2.734375 5.578125 -2.734375 C 6.023438 -2.734375 6.410156 -2.875 6.734375 -3.15625 C 7.066406 -3.445312 7.234375 -3.828125 7.234375 -4.296875 C 7.234375 -4.753906 7.0625 -5.109375 6.71875 -5.359375 C 6.375 -5.617188 5.851562 -5.890625 5.15625 -6.171875 C 3.894531 -6.640625 3.050781 -7.066406 2.625 -7.453125 C 2.195312 -7.835938 1.890625 -8.265625 1.703125 -8.734375 C 1.515625 -9.203125 1.421875 -9.734375 1.421875 -10.328125 C 1.421875 -11.679688 1.859375 -12.800781 2.734375 -13.6875 C 3.617188 -14.582031 4.722656 -15.03125 6.046875 -15.03125 C 6.898438 -15.007812 7.75 -14.875 8.59375 -14.625 C 9.445312 -14.382812 10.160156 -14.015625 10.734375 -13.515625 Z M 8.953125 -11.125 "/></g></g></g><g fill="#737373" fill-opacity="1"><g transform="translate(239.408871, 121.994023)"><g><path d="M 1.3125 -20.671875 C 1.3125 -21.328125 1.546875 -21.898438 2.015625 -22.390625 C 2.492188 -22.878906 3.078125 -23.125 3.765625 -23.125 C 4.453125 -23.125 5.035156 -22.878906 5.515625 -22.390625 C 5.992188 -21.898438 6.234375 -21.328125 6.234375 -20.671875 C 6.234375 -19.972656 5.992188 -19.382812 5.515625 -18.90625 C 5.035156 -18.4375 4.453125 -18.203125 3.765625 -18.203125 C 3.078125 -18.203125 2.492188 -18.4375 2.015625 -18.90625 C 1.546875 -19.382812 1.3125 -19.972656 1.3125 -20.671875 Z M 5.84375 -14.5625 L 5.84375 0 L 1.6875 0 L 1.6875 -14.5625 Z M 5.84375 -14.5625 "/></g></g></g><g fill="#737373" fill-opacity="1"><g transform="translate(246.902448, 121.994023)"><g><path d="M 13.4375 -12.75 C 13.882812 -13.457031 14.488281 -14.015625 15.25 -14.421875 C 16.019531 -14.828125 16.828125 -15.03125 17.671875 -15.03125 C 19.234375 -15.03125 20.394531 -14.535156 21.15625 -13.546875 C 21.914062 -12.554688 22.296875 -11.113281 22.296875 -9.21875 L 22.296875 0 L 18.15625 0 L 18.15625 -8.15625 C 18.15625 -9.300781 18.007812 -10.179688 17.71875 -10.796875 C 17.4375 -11.410156 16.925781 -11.71875 16.1875 -11.71875 C 15.4375 -11.71875 14.878906 -11.375 14.515625 -10.6875 C 14.148438 -10.007812 13.96875 -8.910156 13.96875 -7.390625 L 13.96875 0 L 9.8125 0 L 9.8125 -8.453125 C 9.8125 -9.535156 9.644531 -10.347656 9.3125 -10.890625 C 8.976562 -11.441406 8.484375 -11.71875 7.828125 -11.71875 C 7.171875 -11.71875 6.640625 -11.429688 6.234375 -10.859375 C 5.835938 -10.285156 5.640625 -9.332031 5.640625 -8 L 5.640625 0 L 1.484375 0 L 1.484375 -14.5625 L 5.640625 -14.5625 L 5.640625 -13.25 L 5.6875 -13.25 C 6.101562 -13.820312 6.632812 -14.257812 7.28125 -14.5625 C 7.925781 -14.875 8.582031 -15.03125 9.25 -15.03125 C 11.113281 -15.03125 12.507812 -14.269531 13.4375 -12.75 Z M 13.4375 -12.75 "/></g></g></g><g fill="#737373" fill-opacity="1"><g transform="translate(270.656758, 121.994023)"><g><path d="M 11.15625 -14.5625 L 15.25 -14.5625 L 15.25 0 L 11.15625 0 L 11.15625 -1.328125 L 11.09375 -1.328125 C 10.65625 -0.753906 10.078125 -0.3125 9.359375 0 C 8.640625 0.3125 7.898438 0.46875 7.140625 0.46875 C 5.222656 0.46875 3.625 -0.285156 2.34375 -1.796875 C 1.070312 -3.304688 0.4375 -5.160156 0.4375 -7.359375 C 0.4375 -8.722656 0.710938 -9.988281 1.265625 -11.15625 C 1.828125 -12.320312 2.613281 -13.257812 3.625 -13.96875 C 4.644531 -14.675781 5.800781 -15.03125 7.09375 -15.03125 C 7.84375 -15.03125 8.578125 -14.875 9.296875 -14.5625 C 10.015625 -14.25 10.632812 -13.796875 11.15625 -13.203125 Z M 8.0625 -11.359375 C 7.132812 -11.359375 6.332031 -10.957031 5.65625 -10.15625 C 4.988281 -9.351562 4.65625 -8.398438 4.65625 -7.296875 C 4.65625 -6.191406 4.988281 -5.234375 5.65625 -4.421875 C 6.332031 -3.609375 7.144531 -3.203125 8.09375 -3.203125 C 9.0625 -3.203125 9.878906 -3.601562 10.546875 -4.40625 C 11.222656 -5.207031 11.5625 -6.171875 11.5625 -7.296875 C 11.5625 -8.421875 11.21875 -9.378906 10.53125 -10.171875 C 9.851562 -10.960938 9.03125 -11.359375 8.0625 -11.359375 Z M 8.0625 -11.359375 "/></g></g></g><g fill="#737373" fill-opacity="1"><g transform="translate(287.391393, 121.994023)"><g><path d="M 4.296875 0.59375 C 3.566406 0.59375 2.941406 0.332031 2.421875 -0.1875 C 1.910156 -0.71875 1.65625 -1.347656 1.65625 -2.078125 C 1.65625 -2.804688 1.910156 -3.421875 2.421875 -3.921875 C 2.941406 -4.429688 3.566406 -4.6875 4.296875 -4.6875 C 5.023438 -4.6875 5.644531 -4.429688 6.15625 -3.921875 C 6.675781 -3.421875 6.9375 -2.804688 6.9375 -2.078125 C 6.9375 -1.347656 6.675781 -0.71875 6.15625 -0.1875 C 5.644531 0.332031 5.023438 0.59375 4.296875 0.59375 Z M 4.296875 0.59375 "/></g></g></g><g fill="#737373" fill-opacity="1"><g transform="translate(295.95122, 121.994023)"><g><path d="M 9.109375 -21.328125 C 8.785156 -21.484375 8.492188 -21.601562 8.234375 -21.6875 C 7.984375 -21.78125 7.707031 -21.828125 7.40625 -21.828125 C 6.757812 -21.804688 6.328125 -21.546875 6.109375 -21.046875 C 5.890625 -20.554688 5.78125 -19.984375 5.78125 -19.328125 L 5.78125 -14.5625 L 9.109375 -14.5625 L 9.109375 -11.0625 L 5.78125 -11.0625 L 5.78125 0 L 1.625 0 L 1.625 -11.0625 L 0.234375 -11.0625 L 0.234375 -14.5625 L 1.625 -14.5625 L 1.625 -18.890625 C 1.625 -20.960938 2.101562 -22.582031 3.0625 -23.75 C 4.019531 -24.914062 5.375 -25.5 7.125 -25.5 C 7.875 -25.5 8.535156 -25.34375 9.109375 -25.03125 Z M 9.109375 -21.328125 "/></g></g></g><g fill="#737373" fill-opacity="1"><g transform="translate(304.925743, 121.994023)"><g><path d="M 10.53125 -10.828125 C 10.007812 -11.179688 9.4375 -11.359375 8.8125 -11.359375 C 7.738281 -11.359375 6.941406 -10.992188 6.421875 -10.265625 C 5.898438 -9.546875 5.640625 -8.359375 5.640625 -6.703125 L 5.640625 0 L 1.484375 0 L 1.484375 -14.5625 L 5.640625 -14.5625 L 5.640625 -13.046875 L 5.6875 -13.046875 C 6.101562 -13.679688 6.617188 -14.171875 7.234375 -14.515625 C 7.847656 -14.859375 8.539062 -15.03125 9.3125 -15.03125 C 9.882812 -15.007812 10.457031 -14.894531 11.03125 -14.6875 Z M 10.53125 -10.828125 "/></g></g></g><g fill="#737373" fill-opacity="1"><g transform="translate(315.795871, 121.994023)"><g><path d="M 12.015625 -25.140625 L 14.890625 -24.109375 L 3.96875 4.796875 L 1.09375 3.765625 Z M 12.015625 -25.140625 "/></g></g></g></svg>